<svg width="25" height="23" viewBox="0 0 25 23" fill="none" xmlns="http://www.w3.org/2000/svg">
<path d="M1.75 11.8855V19.7497C1.75 20.8543 2.64543 21.7497 3.75 21.7497H7.75C8.02614 21.7497 8.25 21.5259 8.25 21.2497V16.6822V16.4997C8.25 14.1525 10.1528 12.2497 12.5 12.2497C14.8472 12.2497 16.75 14.1525 16.75 16.4997V16.6822V21.2497C16.75 21.5259 16.9739 21.7497 17.25 21.7497H21.25C22.3546 21.7497 23.25 20.8543 23.25 19.7497V11.8855C23.25 10.3765 22.5685 8.94814 21.3954 7.99882L15.6454 3.34539C13.8112 1.86094 11.1888 1.86094 9.35455 3.34539L3.60455 7.99882C2.43153 8.94814 1.75 10.3765 1.75 11.8855Z" fill="#F3F5F7" stroke="#F3F5F7" stroke-width="2.5" stroke-linecap="round"/>
</svg>
